<?xml version="1.0" encoding="iso-8859-1"?>
<!-- Generator: Adobe Illustrator 19.0.0, SVG Export Plug-In . SVG Version: 6.00 Build 0)  -->
<svg version="1.1" id="Layer_1" xmlns="http://www.w3.org/2000/svg" xmlns:xlink="http://www.w3.org/1999/xlink" x="0px" y="0px"
	 viewBox="0 0 512 512" style="enable-background:new 0 0 512 512;" xml:space="preserve">
<g>
	<g>
		<path d="M337.356,123.946c-9.032,0-16.354,7.322-16.354,16.354v6.513l-165.334,39.488c-0.563-0.059-1.134-0.091-1.712-0.091
			h-44.584c-24.848,0-45.712,17.322-51.19,40.52c-8.191,0.891-14.568,7.825-14.568,16.252c0,8.428,6.377,15.362,14.568,16.252
			c3.125,13.236,11.255,24.552,22.283,31.834l19.387,67.462c2.014,7.008,8.425,11.837,15.718,11.837h31.199
			c9.032,0,16.354-7.322,16.354-16.354v-52.571l157.878,37.707v6.513c0,9.032,7.322,16.354,16.354,16.354
			c9.032,0,16.354-7.322,16.354-16.354V140.3C353.71,131.268,346.387,123.946,337.356,123.946z M130.416,337.66h-2.529
			l-10.893-37.907h13.422V337.66z M136.436,267.046h-27.064c-10.972,0-19.898-8.927-19.898-19.898v-8.332
			c0-10.972,8.927-19.898,19.898-19.898h27.064V267.046z M321.001,305.525l-150.691-35.991v-53.101l150.691-35.99V305.525z"/>
	</g>
</g>
<g>
	<g>
		<path d="M430.225,226.629h-39.767c-9.032,0-16.354,7.322-16.354,16.354c0,9.032,7.322,16.354,16.354,16.354h39.767
			c9.032,0,16.354-7.322,16.354-16.354C446.578,233.951,439.256,226.629,430.225,226.629z"/>
	</g>
</g>
<g>
	<g>
		<path d="M429.776,171.411c-4.786-7.659-14.876-9.987-22.536-5.201l-25.451,15.907c-7.659,4.787-9.988,14.876-5.201,22.536
			c3.103,4.965,8.431,7.688,13.883,7.688c2.96,0,5.957-0.804,8.652-2.488l25.451-15.907
			C432.235,189.159,434.564,179.07,429.776,171.411z"/>
	</g>
</g>
<g>
	<g>
		<path d="M424.576,292.019l-25.451-15.907c-7.66-4.786-17.749-2.458-22.536,5.201c-4.787,7.659-2.458,17.748,5.201,22.536
			l25.451,15.907c2.696,1.684,5.692,2.488,8.652,2.488c5.451,0,10.782-2.725,13.883-7.688
			C434.563,306.895,432.235,296.806,424.576,292.019z"/>
	</g>
</g>
<g>
	<g>
		<path d="M437.019,74.981C388.667,26.628,324.38,0,256,0S123.333,26.628,74.981,74.981C26.628,123.333,0,187.62,0,256
			s26.628,132.667,74.981,181.019C123.333,485.372,187.62,512,256,512s132.667-26.628,181.019-74.981
			C485.372,388.667,512,324.38,512,256S485.372,123.333,437.019,74.981z M256,479.292C132.876,479.292,32.708,379.124,32.708,256
			S132.876,32.708,256,32.708S479.292,132.876,479.292,256S379.124,479.292,256,479.292z"/>
	</g>
</g>
<g>
</g>
<g>
</g>
<g>
</g>
<g>
</g>
<g>
</g>
<g>
</g>
<g>
</g>
<g>
</g>
<g>
</g>
<g>
</g>
<g>
</g>
<g>
</g>
<g>
</g>
<g>
</g>
<g>
</g>
</svg>
